<svg id="Capa_1" enable-background="new 0 0 512 512" height="512" viewBox="0 0 512 512" width="512" xmlns="http://www.w3.org/2000/svg"><g><g><path clip-rule="evenodd" d="m266.235 293.394v-54.347l-39.102-3.811-32.852 34.62c12.696 20.337 33.174 44.039 35.685 45.207 1.811.818 36.269-21.669 36.269-21.669z" fill="#edf4ff" fill-rule="evenodd"/></g><path clip-rule="evenodd" d="m150.647 284.131h115.589v76.151h-115.589z" fill="#c3ddff" fill-rule="evenodd"/><g><path clip-rule="evenodd" d="m285.596 219.044c7.505-13.024 6.57-18.164 7.505-35.89v-18.953c0-18.164-14.864-33.028-33.028-33.028h-86.292c-13.813 0-22.194 6.746-28.998 17.785l-50.782 82.469c1.811.321 54.352 47.246 59.667 48.268 13.433 2.57 89.731-29.666 89.731-29.666l5.315-2.132c13.083-5.286 24.063-11.74 32.122-21.844 1.723-2.162 3.3-4.498 4.76-7.009z" fill="#edf4ff" fill-rule="evenodd"/></g><g><path d="m133.475 243.125c-1.38 0-2.778-.37-4.04-1.146-3.635-2.236-4.769-6.995-2.533-10.63l21.376-34.752c2.236-3.634 6.994-4.768 10.629-2.533 3.635 2.236 4.769 6.995 2.533 10.63l-21.376 34.752c-1.459 2.372-3.994 3.679-6.589 3.679z" fill="#dbeaff"/></g><g><path clip-rule="evenodd" d="m229.966 306.098c-2.511-1.168-5.023-5.227-11.243-12.849-6.278-7.651-16.645-17.376-24.442-23.391-13.828-11.521-13.828-11.521-23.332-19.77-10.805-7.797-24.033-12.119-37.466-14.689-5.315-1.022-10.63-1.752-15.886-2.336l-23.595 16.967 12.265 24.793c8.527 1.723 15.214 4.264 19.39 6.191 38.518 17.814 54.637 45.586 55.309 55.398.584 8.264-9.257 10.396-41.934 10.396h-56.39l-14.65 22.192 14.65 19.712 61.529 15.4 78.67-15.4 43.394-39.482z" fill="#7e707d" fill-rule="evenodd"/></g><g><path clip-rule="evenodd" d="m243.399 250.028-16.266-32.152-45.701 19.829c-5.519 2.19-9.286 6.95-10.484 12.382-.701 3.271-.496 6.804.847 10.133 3.533 8.848 13.667 13.17 22.486 9.637z" fill="#ffeee6" fill-rule="evenodd"/></g><g><path clip-rule="evenodd" d="m248.714 247.896c13.083-5.286 24.063-11.74 32.122-21.844 1.723-2.161 3.3-4.497 4.76-7.009 7.505-13.024 6.57-18.164 7.505-35.89v-18.953c0-16.646-12.469-30.488-28.53-32.707 5.87 5.957 9.491 14.134 9.491 23.099v18.953c-.905 17.726.029 22.895-7.476 35.92-1.46 2.511-3.066 4.848-4.789 7.009-6.687 8.381-15.419 14.28-25.727 19.069l7.33 14.485z" fill="#dbeaff" fill-rule="evenodd"/></g><g><path clip-rule="evenodd" d="m243.399 250.028-7.33-14.485c-2.073.964-4.176 1.869-6.366 2.745l-5.315 2.161-.088-.146-37.32 15.069c-5.636 2.249-11.798 1.314-16.441-1.957-.029 2.278.35 4.585 1.256 6.804 3.533 8.848 13.667 13.17 22.486 9.637z" fill="#ffdfcf" fill-rule="evenodd"/></g><g><path d="m243.405 257.757c-2.821 0-5.54-1.551-6.9-4.24l-16.266-32.153c-1.926-3.808-.401-8.456 3.406-10.382 3.808-1.927 8.456-.4 10.382 3.406l16.266 32.153c1.926 3.808.401 8.456-3.406 10.382-1.118.565-2.309.834-3.482.834z" fill="#dbeaff"/></g><g><path clip-rule="evenodd" d="m76.86 346.806c-8.41 0-13.988-.029-17.492-7.418-4.672-9.9-16.324-27.509-27.742-28.385-8.761-.672-7.563 2.511-6.483 8.615l12.09 69.094 45.409 15.4v-57.306z" fill="#ffeee6" fill-rule="evenodd"/></g><g><path clip-rule="evenodd" d="m106.266 274.821 11.33-41.76c-5.315-.584-10.542-.993-15.506-1.373-3.855-.263-6.278.058-8.089-.263-2.161-.35-3.475-1.577-5.373-5.578-4.702-9.871-17.171-29.232-28.618-30.108-8.761-.672-7.534 2.541-6.483 8.615l10.659 60.8c1.869 10.659 1.986 9.228 13.813 8.148 10.688-.992 20.295-.087 28.267 1.519z" fill="#ffeee6" fill-rule="evenodd"/></g><g><path clip-rule="evenodd" d="m376.707 314.858c-23.07-19.391-61.587-27.48-95.87-23.8-16.412 1.752-31.83 6.22-44.124 13.404-3.154 1.84-4.935 2.453-6.746 1.635v43.133l68.391 54.882 110.734-15.4c-.321-30.195 4.76-37.993-32.385-73.854z" fill="#ff8086" fill-rule="evenodd"/></g><g><path clip-rule="evenodd" d="m216.942 169.603c14.046 0 25.552-12.645 25.552-28.122v-10.309h-51.133v10.309c0 15.477 11.506 28.122 25.581 28.122z" fill="#ffdfcf" fill-rule="evenodd"/></g><g><path clip-rule="evenodd" d="m233.704 131.172c19.595-9.111 35.042-30.78 35.042-48.243v-15.857c-18.241-29.203-85.203-40.459-103.638 0v15.857c0 17.463 15.448 39.132 35.072 48.272 5.115 2.314 10.599 4.074 16.258 4.171 6.008.104 11.852-1.739 17.266-4.2z" fill="#ffeee6" fill-rule="evenodd"/></g><g><path clip-rule="evenodd" d="m268.747 67.072c0-38.489-25.902-57.997-51.804-58.406-25.902.409-51.834 19.916-51.834 58.406 20.996-1.46 23.595-16.733 38.05-12.995 4.731 1.226 62.492 12.791 65.588 12.995z" fill="#e29d7b" fill-rule="evenodd"/></g><g><path clip-rule="evenodd" d="m216.942 135.378c-4.147 0-8.293-.876-12.995-2.599-1.256-.467-2.541-1.022-3.767-1.606h-8.819v7.739c0 6.804 19.098 12.236 26.311 12.207 12.498 0 24.822-5.578 24.822-12.207v-7.739h-8.79c0 .029 0 .029 0 0-.321.175-.642.292-.934.438-2.336 1.051-4.818 1.957-7.271 2.57-2.892.759-5.607 1.197-8.557 1.197z" fill="#ffcebf" fill-rule="evenodd"/></g><g><path clip-rule="evenodd" d="m268.747 67.072c0-38.489-25.902-57.997-51.804-58.406-4.672.058-9.315.759-13.842 2.073 19.39 5.636 36.006 22.661 37.817 51.076 13.841 2.746 26.427 5.169 27.829 5.257z" fill="#ce8b6b" fill-rule="evenodd"/></g><g><path clip-rule="evenodd" d="m233.704 131.172c19.595-9.111 35.042-30.78 35.042-48.243v-15.857c-1.402-.088-13.988-2.511-27.83-5.256v15.857c0 18.573-17.463 41.906-38.839 49.849-1.986.73-3.855 1.314-5.694 1.723 1.256.701 2.511 1.343 3.796 1.957 1.227.555 2.511 1.11 3.767 1.577 4.702 1.723 8.848 2.599 12.995 2.599 4.468 0 8.79-1.051 12.966-2.599 1.315-.497 2.542-1.023 3.797-1.607z" fill="#ffdfcf" fill-rule="evenodd"/></g><g><path clip-rule="evenodd" d="m106.266 274.821 5.636-20.792c-9.286-2.92-22.456-5.461-37.992-4.03-11.827 1.081-11.944 2.511-13.813-8.148l4.088 23.304c1.869 10.659 1.986 9.228 13.813 8.148 10.689-.993 20.296-.088 28.268 1.518z" fill="#ffdfcf" fill-rule="evenodd"/></g><g><path clip-rule="evenodd" d="m298.358 388.712v-39.482h-68.391-5.432c-10.863 0-19.77 8.907-19.77 19.77 0 10.309 7.972 18.836 18.076 19.712l33.144 10.998z" fill="#ffeee6" fill-rule="evenodd"/></g><g><path d="m298.358 396.439c-4.267 0-7.726-3.459-7.726-7.726v-39.483c0-4.268 3.459-7.726 7.726-7.726s7.726 3.459 7.726 7.726v39.482c0 4.268-3.459 7.727-7.726 7.727z" fill="#e5646e"/></g><g><path clip-rule="evenodd" d="m455.34 339.453c2.032-11.789 0-28.566-9.132-49.972-8.556-4.234-18.339-6.133-28.472-5.052-18.456 1.957-33.436 14.835-41.029 30.429-1.08 2.249-2.015 4.526-2.803 6.833-2.161 6.571-3.037 13.404-2.336 19.946 2.336 21.931 16.061 40.563 37.525 47.075l11.175-3.564c16.112-5.139 28.387-18.296 32.396-34.726z" fill="#ffeee6" fill-rule="evenodd"/></g><g><path clip-rule="evenodd" d="m484.696 350.866c3.796-15.974-4.994-31.451.73-56.975 4.293-19.157-9.987-19.741-26.311-13.813-5.256 1.927-9.637 5.14-12.907 9.403-8.41 10.863-9.724 28.56-.409 48.798 12.382 26.808-36.707 50.433-36.707 50.433 42.314 0 68.07-6.161 75.604-37.846z" fill="#7e707d" fill-rule="evenodd"/></g><g><path clip-rule="evenodd" d="m445.799 338.279c-9.315-20.238-8.001-37.935.409-48.798-7.067-3.475-14.951-5.403-23.216-5.344-5.578 12.353-5.49 30.05 2.599 49.878 8.673 21.26-12.878 40.738-26.515 50.492 3.125 1.694 6.454 3.125 10.016 4.205 0 0 49.089-23.625 36.707-50.433z" fill="#ffdfcf" fill-rule="evenodd"/></g><g><path clip-rule="evenodd" d="m484.696 350.866c3.796-15.974-4.994-31.451.73-56.975 3.008-13.346-3.037-17.668-12.469-17.054-19.741 27.217-2.132 53.441-8.527 76.862-4.76 20.092-16.879 29.933-35.889 34.43 30.808-2.132 49.847-10.776 56.155-37.263z" fill="#6a5d6a" fill-rule="evenodd"/></g><g><path clip-rule="evenodd" d="m194.223 319.356c-16.791-51.747-82.467-65.385-82.321-65.327l-5.636 20.792c8.527 1.723 15.214 4.264 19.39 6.191 38.518 17.814 54.637 45.586 55.309 55.398.292 4.322-2.249 6.95-9.374 8.498 0 0 8.644 3.066 16.032-4.38l-.058.058c6.541-5.753 8.848-14.485 6.658-21.23zm-12.498 24.968c.321-.146.642-.321.964-.467-.322.146-.643.321-.964.467zm1.022-.496c.146-.088.292-.146.438-.234-.146.088-.292.146-.438.234zm.467-.234c.146-.088.292-.175.467-.263-.175.088-.321.175-.467.263zm.467-.292c.146-.058.292-.146.438-.234-.146.088-.292.176-.438.234zm.496-.263c.117-.088.263-.175.409-.263-.146.088-.292.176-.409.263zm.877-.555c.146-.088.292-.175.409-.292-.117.117-.263.205-.409.292zm.467-.321c.117-.088.263-.175.38-.263-.117.088-.263.175-.38.263zm.409-.292c.146-.088.263-.175.409-.292-.147.117-.263.204-.409.292zm.408-.292c.292-.204.555-.438.818-.642-.263.204-.526.438-.818.642zm1.198-.964c-.146.088-.263.204-.38.321m-2.102 1.548c-.146.088-.292.204-.438.292" fill="#6a5d6a" fill-rule="evenodd"/></g><g><path clip-rule="evenodd" d="m399.076 384.507c-15.682-8.586-25.552-24.56-27.508-42.87-.701-6.541.175-13.375 2.336-19.946.788-2.307 1.723-4.585 2.803-6.833-6.132-5.169-13.375-9.52-21.317-13.083-1.606 3.388-2.979 6.833-4.147 10.338-3.621 10.863-5.052 22.136-3.913 32.941 1.723 16.032 7.125 31.013 15.711 43.658h46.052c-3.564-1.08-6.893-2.511-10.017-4.205z" fill="#e5646e" fill-rule="evenodd"/></g><g><path clip-rule="evenodd" d="m409.092 388.712h-110.734-75.517-140.199-45.409-32.298c-2.716 0-4.935 2.219-4.935 4.935v60.567c0 2.745 2.219 4.965 4.935 4.965h26.983 448.135 26.983c2.716 0 4.964-2.219 4.964-4.965v-60.567c0-2.716-2.249-4.935-4.964-4.935z" fill="#b3e59f" fill-rule="evenodd"/></g><g><path clip-rule="evenodd" d="m480.053 459.179h-448.135v22.077c0 12.148 9.929 22.077 22.077 22.077h403.982c12.148 0 22.077-9.929 22.077-22.077v-22.077z" fill="#e0dfe1" fill-rule="evenodd"/></g><g><path clip-rule="evenodd" d="m512 454.214v-60.567c0-2.716-2.249-4.935-4.964-4.935h-48.972c2.716 0 4.964 2.219 4.964 4.935v60.567c0 2.745-2.249 4.965-4.964 4.965h21.989 26.983c2.715 0 4.964-2.219 4.964-4.965z" fill="#95d6a4" fill-rule="evenodd"/></g><g><path clip-rule="evenodd" d="m480.053 481.256v-22.077h-21.989-56.272v22.077c0 12.148-9.958 22.077-22.077 22.077h78.262c12.147.001 22.076-9.928 22.076-22.077z" fill="#d3cfd2" fill-rule="evenodd"/></g></g></svg>